# xmcd
#
# Track frame offsets: 
#        150
#        14670
#        26250
#        43318
#        56033
#        73900
#        83555
#        98280
#        115000
#        133458
#        148118
#        162160
#        173118
#
# Disc length: 2451 seconds
#
# Revision: 2
# Processed by: cddbd v1.5.1PL2 Copyright (c) Steve Scherf et al.
# Submitted via: ExactAudioCopy v0.95b3
#
DISCID=b109910d
DTITLE=Various Artist - Prestige Profiles Collectors Edition Vol 8
DYEAR=1900
DGENRE=Blues
TTITLE0=Sonny Terry and Brownie McGhee - Wholesale Dealin' Papa
TTITLE1=Willie Dixon with Memphis Slim - Built For Comfort
TTITLE2=Homesick James - Goin' Down Swingin'
TTITLE3=Jimmy Witherspoon - Money's Gettin' Cheaper
TTITLE4=Sunnyland Slim - The Devil Is A Busy Man
TTITLE5=Shakey Jake - Jake's Cha Cha
TTITLE6=Lonnie Johnson - Big Leg Woman
TTITLE7=Otis Spann - The Blues Never Die
TTITLE8=Rev. Gary Davis - Samson and Delilah
TTITLE9=Big Joe Williams - Trouble Gonna Take Me to My Grave
TTITLE10=Memphis Willie B. - Mailman Blues
TTITLE11=Blind Willie McTell - Salty Dog
TTITLE12=Roosevelt Sykes - Drivin' Wheel
EXTD=
EXTT0=
EXTT1=
EXTT2=
EXTT3=
EXTT4=
EXTT5=
EXTT6=
EXTT7=
EXTT8=
EXTT9=
EXTT10=
EXTT11=
EXTT12=
PLAYORDER=
